<svg xmlns="http://www.w3.org/2000/svg" width="15" height="15">
    <path fill="#F00" fill-rule="evenodd" d="M12.806 12.805A7.481 7.481 0 0 1 7.501 15a7.481 7.481 0 0 1-5.305-2.195A7.457 7.457 0 0 1-.001 7.5c0-2.005.781-3.889 2.197-5.307 2.925-2.925 7.685-2.925 10.61 0 2.923 2.926 2.923 7.686 0 10.612zm-.822-9.79C9.511.543 5.489.542 3.018 3.015A6.3 6.3 0 0 0 1.161 7.5c0 1.694.659 3.286 1.857 4.483a6.345 6.345 0 0 0 8.966 0 6.351 6.351 0 0 0 0-8.968zm-1.978 6.913a.586.586 0 0 1-.823.001L7.536 8.284 5.89 9.929a.58.58 0 0 1-.821-.823l1.644-1.643L5.069 5.82a.581.581 0 0 1 .821-.823l1.646 1.645 1.647-1.645a.58.58 0 1 1 .821.823L8.36 7.463l1.644 1.643a.583.583 0 0 1 .002.822z"/>
</svg>
